<svg xmlns="http://www.w3.org/2000/svg" viewBox="0 0 512 512">
  <defs>
    <linearGradient id="bg" x1="0" y1="0" x2="1" y2="1">
      <stop offset="0" stop-color="#b07c4c"/>
      <stop offset="1" stop-color="#7a5230"/>
    </linearGradient>
  </defs>
  <rect width="512" height="512" rx="112" fill="url(#bg)"/>
  <g transform="translate(256 262) rotate(-38)">
    <path d="M0-150C78-118 112-50 112 8 112 82 60 140 0 150-60 140-112 82-112 8-112-50-78-118 0-150Z" fill="#f3e6d3"/>
    <path d="M0-118V172" stroke="#9a6b40" stroke-width="16" stroke-linecap="round"/>
    <path d="M0-20 58-70M0 40 66-6M0 100 56 62M0-20-58-70M0 40-66-6M0 100-56 62" stroke="#9a6b40" stroke-width="11" stroke-linecap="round" fill="none"/>
  </g>
</svg>
